<svg width="64" height="64" viewBox="0 0 64 64" fill="none" xmlns="http://www.w3.org/2000/svg">
<path fill-rule="evenodd" clip-rule="evenodd" d="M32 64C49.6731 64 64 49.6731 64 32C64 14.3269 49.6731 0 32 0C14.3269 0 0 14.3269 0 32C0 36.2508 0.828846 40.3081 2.33374 44.0189C5.38175 43.4688 8.44916 43.0005 8.76841 43.0005H13.6385L17.7263 39.7608C19.5724 38.2999 21.8668 37.5007 24.2403 37.5007H38.3057C40.0199 37.5007 41.3737 38.996 41.0836 40.7146C40.855 42.0638 39.554 43.0005 38.1562 43.0005H31.273C30.4994 43.0005 29.8664 43.6192 29.8664 44.3754C29.8664 45.1316 30.4994 45.7504 31.273 45.7504H41.6726C42.956 45.7504 44.1955 45.3293 45.1889 44.5473L53.3116 38.1968C54.4017 37.3374 56.0192 37.2773 57.0565 38.1968C58.384 39.3655 58.2785 41.3591 56.9423 42.3989L43.6505 52.7969C42.6483 53.5789 41.4088 54 40.1342 54H8.76841C8.76632 54 8.76418 54 8.762 54C14.5944 60.1585 22.8486 64 32 64ZM33.8047 31.5283C33.1806 32.1642 32.1784 32.1642 31.5631 31.5283L21.9898 21.7147C19.2119 18.8616 19.379 14.1353 22.4821 11.5057C25.1897 9.21127 29.2247 9.62376 31.7037 12.176L32.6795 13.1728L33.6641 12.1674C36.1431 9.62376 40.1781 9.21127 42.8857 11.5057C45.9977 14.1353 46.1559 18.8616 43.378 21.7147L33.8047 31.5283Z" fill="#5D9DB9"/>
</svg>
