<svg width="64" height="64" viewBox="0 0 64 64" fill="none" xmlns="http://www.w3.org/2000/svg">
<path fill-rule="evenodd" clip-rule="evenodd" d="M32.452 25.2496H46.227C47.4323 25.2496 48.402 26.211 48.402 27.406V31.7189C48.402 32.9139 47.4323 33.8753 46.227 33.8753H45.502V39.6258C45.502 41.2162 44.2061 42.501 42.602 42.501H41.152C41.152 45.6728 38.5511 48.2515 35.352 48.2515H22.9727L13.602 53.6156C13.2452 53.8191 12.3999 55.0317 11.4647 56.5428C17.022 61.1976 24.1837 64 32 64C49.6731 64 64 49.6731 64 32C64 29.05 63.6008 26.1932 62.8535 23.4808C61.7043 24.1121 60.6687 24.6691 59.8901 25.0879C59.2312 25.4423 58.7562 25.6978 58.552 25.8156L51.302 29.9668V27.406C51.302 24.6296 49.0273 22.3743 46.227 22.3743H29.552V30.2813C29.552 32.267 27.9298 33.8753 25.927 33.8753C23.9242 33.8753 22.302 32.267 22.302 30.2813V18.933C22.302 17.9447 22.8095 17.0192 23.6614 16.4981L26.6973 14.6202C27.6217 14.0541 28.682 13.7486 29.7695 13.7486H39.0314L48.402 8.38448C48.7807 7.2957 49.1799 6.25218 49.5921 5.26523C44.5444 1.93704 38.4984 0 32 0C14.3269 0 0 14.3269 0 32C0 33.4501 0.0964527 34.8776 0.283292 36.2766L10.702 32.0333V27.7834C10.702 25.7707 11.7714 23.8928 13.5205 22.8595L19.402 19.3553V30.2813C19.402 33.8484 22.3292 36.7505 25.927 36.7505C29.5248 36.7505 32.452 33.8484 32.452 30.2813V25.2496Z" fill="#5D9DB9"/>
</svg>
